<?xml version="1.0" encoding="iso-8859-1"?>
<!-- Generator: Adobe Illustrator 18.1.1, SVG Export Plug-In . SVG Version: 6.00 Build 0)  -->
<svg version="1.1" id="Capa_1" xmlns="http://www.w3.org/2000/svg" xmlns:xlink="http://www.w3.org/1999/xlink" x="0px" y="0px"
	 viewBox="0 0 612 612" style="enable-background:new 0 0 612 612;" xml:space="preserve">
<g>
	<g>
		<path d="M134.47,318.945c-1.001,0-2.002,0.022-3.002,0.05c-0.253,3.868-0.392,7.758-0.392,11.67
			c0,46.719,18.193,90.64,51.228,123.675c13.961,13.961,29.871,25.258,47.109,33.665c4.774-7.837,8.606-16.307,11.364-25.266
			c2.062-6.699,3.477-13.51,4.254-20.353c-39.496-21.634-66.339-63.601-66.339-111.721c0-0.874,0.015-1.745,0.033-2.615
			C164.851,322.081,149.726,318.945,134.47,318.945z"/>
		<path d="M224.029,209.898c4.431,4.771,9.228,9.102,14.326,12.976c19.606-12.344,42.794-19.498,67.624-19.498
			c24.601,0,47.588,7.022,67.079,19.157c4.772-3.662,9.273-7.73,13.453-12.185c6.992-7.452,12.841-15.732,17.471-24.599
			c-28.7-19.496-62.544-29.987-98.003-29.987c-35.775,0-69.905,10.68-98.767,30.512
			C211.717,194.759,217.348,202.704,224.029,209.898z"/>
		<path d="M366.637,442.549c0.693,7.315,2.11,14.602,4.276,21.761c2.585,8.548,6.151,16.659,10.59,24.204
			c17.641-8.456,33.91-19.932,48.152-34.174c33.035-33.035,51.228-76.957,51.228-123.675c0-3.237-0.096-6.458-0.27-9.665
			c-1.058-0.03-2.115-0.053-3.174-0.053c-15.438,0-30.434,3.19-44.178,9.113c0.001,0.202,0.008,0.402,0.008,0.604
			C433.268,378.905,406.294,420.963,366.637,442.549z"/>
		<path d="M608.221,407.819c0.199,1.065,1.031,1.566,1.865,1.566c0.972,0,1.945-0.682,1.913-1.945
			c-0.37-14.699-2.654-29.436-6.884-43.879c-12.379-42.27-40.191-77.668-78.312-99.674c-19.263-11.125-40.16-18.268-62.112-21.228
			l-2.538-0.342l0.972-2.369c8.409-20.498,12.672-42.18,12.672-64.446c0-60.959-32.273-114.917-81-145.052
			c-0.346-0.214-0.693-0.307-1.02-0.307c-1.557,0-2.677,2.109-1.214,3.376c3.694,3.199,7.23,6.615,10.592,10.24
			c22.953,24.746,35.594,56.952,35.594,90.684c0,23.619-6.164,45.846-16.994,65.131c-7.864,14.003-18.186,26.455-30.411,36.754
			c-20.25,17.061-45.703,28.22-73.781,30.763v0.191v24.053v0.233c7.688,2.235,14.639,6.683,19.943,12.839
			c6.512,7.558,10.098,17.21,10.098,27.178c0,3.18-0.371,6.343-1.099,9.452l0.46,0.266l21.862,12.629l0.289,0.167
			c15.704-21.804,37.335-38.029,61.935-47.101c14.622-5.392,30.288-8.268,46.386-8.268c0.18,0,0.361,0.004,0.541,0.004
			c23.04,0.095,45.802,6.256,65.859,17.838C578.768,336.74,601.298,370.677,608.221,407.819z"/>
		<path d="M1.915,406.672c0.829,0,1.658-0.496,1.86-1.553c0.922-4.811,2.111-9.594,3.569-14.329
			c9.94-32.274,31.514-59.345,60.748-76.229c20.178-11.65,43.087-17.815,66.259-17.836c0.039,0,0.079-0.001,0.119-0.001
			c16.267,0,32.069,2.924,46.794,8.407c24.814,9.24,46.553,25.776,62.238,48.007l0.158-0.091l20.913-12.123l0.704-0.408
			c-0.616-2.884-0.933-5.871-0.933-8.934c0-17.624,11.347-33.364,27.614-39.198c1.107-0.397,2.235-0.749,3.386-1.052v-24.053
			c-1.133-0.085-2.261-0.187-3.386-0.3c-27.24-2.745-51.979-13.674-71.816-30.222c-12.278-10.242-22.68-22.633-30.629-36.575
			c-11.092-19.455-17.415-41.919-17.415-65.748c0-33.57,12.526-65.654,35.268-90.342c3.452-3.747,7.091-7.274,10.899-10.57
			c1.463-1.267,0.339-3.37-1.22-3.371c-0.328,0-0.676,0.093-1.023,0.307c-12.658,7.819-24.358,17.342-34.777,28.421
			C151.423,90.584,135,131.998,135,175.493c0,21.688,4.02,42.803,11.947,62.76l0.924,2.325l-2.476,0.363
			c-21.309,3.122-41.603,10.182-60.317,20.985C32.25,292.433,1.674,347.411,0.001,404.722
			C-0.036,405.987,0.941,406.672,1.915,406.672z"/>
		<path d="M90.11,555.757c-1.79,0-2.698,2.598-0.857,3.591c0.283,0.153,0.567,0.305,0.851,0.456
			c24.685,13.143,52.5,20.09,80.439,20.09c29.709,0,59.082-7.893,84.946-22.825c18.582-10.725,34.773-24.692,48.126-41.513
			l1.574-1.982l1.544,2.006c13.557,17.612,30.284,32.233,49.716,43.455c25.867,14.931,55.243,22.823,84.952,22.823
			c27.991,0,55.847-6.968,80.557-20.15c0.134-0.072,0.268-0.143,0.402-0.215c1.842-0.989,0.932-3.588-0.86-3.588
			c-0.215,0-0.442,0.037-0.679,0.119c-13.883,4.801-28.661,7.341-43.81,7.341c-23.252,0-46.241-6.179-66.482-17.867
			c-21.644-12.494-38.49-30.184-49.829-50.62c-7.783-14.027-12.966-29.348-15.32-45.173c-3.708-24.93-0.397-51.107,10.859-75.446
			c0.477-1.032,0.967-2.062,1.474-3.088l-21.862-12.629c-0.832,0.857-1.704,1.666-2.599,2.444
			c-7.542,6.547-17.229,10.231-27.275,10.231c-10.231,0-20.045-3.796-27.637-10.541c-0.905-0.804-1.785-1.64-2.623-2.527
			l-20.913,12.123c0.502,1.044,0.987,2.091,1.46,3.141c11.062,24.592,14.044,51.05,9.911,76.159
			c-2.598,15.781-8.011,31.026-15.988,44.943c-11.318,19.743-27.801,36.812-48.778,48.923
			c-20.25,11.693-43.255,17.874-66.527,17.874c-0.001,0-0.002,0-0.003,0c-15.245,0-30.119-2.574-44.084-7.435
			C90.555,555.795,90.326,555.757,90.11,555.757z"/>
	</g>
</g>
<g>
</g>
<g>
</g>
<g>
</g>
<g>
</g>
<g>
</g>
<g>
</g>
<g>
</g>
<g>
</g>
<g>
</g>
<g>
</g>
<g>
</g>
<g>
</g>
<g>
</g>
<g>
</g>
<g>
</g>
</svg>
